# xmcd
#
# Track frame offsets:
#	182
#	19645
#	36755
#	49842
#	63022
#	74867
#	89277
#	104975
#	120047
#	133870
#	147827
#	159635
#
# Disc length: 2330 seconds
#
# Revision: 2
# Processed by: cddbd v1.4PL0 Copyright (c) Steve Scherf et al.
# Submitted via: CDmax 1.9
#
DISCID=a909180c
DTITLE=Various Artist - New Country April 1995
DYEAR=1995
DGENRE=Country
TTITLE0=Guy Clark - Dublin Blues
TTITLE1=Alison Krauss - Baby, Now That I've Found You
TTITLE2=Hal Ketchum - Stay Forever
TTITLE3=Kieran Kane - This Dirty Little Town
TTITLE4=Radney Foster - Willin' to Walk
TTITLE5=Aaron Tippin - Mission From Hank
TTITLE6=Wesley Dennis - I Don't Know (But I've Been Told)
TTITLE7=Carrie Newcomer - Holy Ground
TTITLE8=Neal McCoy - Plain Jane
TTITLE9=Ronnie Bowman - The Healing Kind
TTITLE10=Donna B - Knock, Knock
TTITLE11=Robert Earl Keen - The Armadillo Jackal
EXTD=
EXTT0=
EXTT1=
EXTT2=
EXTT3=
EXTT4=
EXTT5=
EXTT6=
EXTT7=
EXTT8=
EXTT9=
EXTT10=
EXTT11=
PLAYORDER=
